<svg version="1.1" id="Layer_1" xmlns="http://www.w3.org/2000/svg" xmlns:xlink="http://www.w3.org/1999/xlink" x="0px" y="0px"
	 width="100%" viewBox="0 0 2560 2560" enable-background="new 0 0 2560 2560" xml:space="preserve">
<path fill="#000000" opacity="1.000000" stroke="none" 
	d="
M1484.000000,2562.000000 
	C989.333313,2562.000000 495.666656,2562.000000 2.000000,2562.000000 
	C2.000000,1708.666626 2.000000,855.333313 2.000000,2.000000 
	C855.333313,2.000000 1708.666626,2.000000 2562.000000,2.000000 
	C2562.000000,855.333313 2562.000000,1708.666626 2562.000000,2562.000000 
	C2203.000000,2562.000000 1844.000000,2562.000000 1484.000000,2562.000000 
M1562.037720,1653.415527 
	C1562.024414,1817.052124 1562.010498,1980.688843 1562.004517,2144.325439 
	C1562.004395,2146.657471 1562.135620,2148.989014 1562.151245,2151.321289 
	C1562.190674,2157.172852 1564.907593,2161.500244 1569.730347,2164.589600 
	C1578.166504,2169.993896 1587.334839,2172.250000 1597.344849,2171.043945 
	C1609.876587,2169.533936 1619.701294,2163.135010 1628.523071,2154.523193 
	C1646.397461,2137.073730 1664.476074,2119.833740 1682.432373,2102.468018 
	C1704.940063,2080.700439 1727.450073,2058.935303 1749.884521,2037.092529 
	C1779.004517,2008.740723 1808.034302,1980.296143 1837.162476,1951.952881 
	C1839.386841,1949.788330 1842.083374,1948.108887 1846.369385,1944.812744 
	C1847.087402,1950.839355 1847.880737,1954.614624 1847.926392,1958.398926 
	C1848.091309,1972.061157 1847.686646,1985.735718 1848.085327,1999.388428 
	C1848.729858,2021.468628 1851.708496,2043.234131 1859.300537,2064.115234 
	C1868.246216,2088.719727 1883.277100,2109.122314 1902.045288,2127.264648 
	C1926.439697,2150.845459 1955.512939,2164.582275 1988.645996,2169.432373 
	C2016.081543,2173.448242 2043.746948,2173.082031 2071.384033,2170.350098 
	C2111.791748,2166.355957 2146.375732,2150.548340 2174.309570,2120.748779 
	C2204.053223,2089.018066 2220.111328,2051.928711 2220.058105,2007.966309 
	C2219.879150,1859.993896 2219.992188,1712.021118 2219.980957,1564.048462 
	C2219.980713,1559.050781 2220.521484,1553.923584 2219.594727,1549.089844 
	C2218.554199,1543.663696 2217.004883,1537.968994 2214.163086,1533.315430 
	C2199.049316,1508.566162 2165.617676,1509.047363 2147.727539,1526.963745 
	C2081.807617,1592.979858 2015.250244,1658.359497 1948.934326,1723.980103 
	C1947.276001,1725.620850 1945.658569,1727.303589 1943.979248,1728.922363 
	C1942.781372,1730.076904 1941.619507,1731.316406 1940.253540,1732.240112 
	C1936.093994,1735.052734 1933.437500,1733.987427 1932.531006,1728.908936 
	C1932.009033,1725.984375 1932.078613,1722.935059 1932.068481,1719.941284 
	C1932.015991,1704.277710 1931.992432,1688.613892 1932.015381,1672.950073 
	C1932.080811,1628.351562 1914.336914,1590.899658 1882.971680,1560.670654 
	C1850.909058,1529.769653 1812.214722,1512.540894 1766.510132,1513.928589 
	C1749.861816,1514.434082 1733.185181,1513.979248 1716.521851,1514.037476 
	C1712.194458,1514.052490 1707.820679,1513.996094 1703.548706,1514.571289 
	C1643.989380,1522.591675 1601.975830,1555.179932 1574.452271,1607.569580 
	C1567.273560,1621.233643 1563.090332,1636.003296 1562.037720,1653.415527 
M352.006897,2029.000000 
	C352.007355,2069.993164 352.003754,2110.986328 352.015717,2151.979492 
	C352.016693,2155.311279 351.915710,2158.662598 352.224701,2161.970947 
	C352.894104,2169.137207 354.961090,2171.153076 362.256073,2171.789795 
	C365.567444,2172.078857 368.916382,2171.981201 372.248352,2171.982666 
	C400.578125,2171.995361 428.907867,2172.000244 457.237640,2171.986572 
	C477.826324,2171.976807 477.999817,2171.817383 478.002777,2151.509766 
	C478.014587,2069.853516 478.002380,1988.197021 478.013855,1906.540649 
	C478.016724,1886.185059 478.204437,1885.998657 498.712952,1885.996704 
	C599.700256,1885.987305 700.687500,1885.992065 801.674805,1885.995117 
	C804.340942,1885.995239 807.011475,1885.946167 809.672485,1886.074219 
	C819.375854,1886.540649 821.415771,1888.485474 821.903870,1897.916626 
	C822.093201,1901.574219 822.003601,1905.247192 822.003784,1908.913208 
	C822.008362,1989.569702 822.003967,2070.226318 822.019043,2150.882812 
	C822.019775,2154.879639 821.902771,2158.907227 822.333923,2162.866455 
	C823.004578,2169.025146 824.998108,2170.936035 831.164978,2171.686035 
	C834.128540,2172.046631 837.153259,2171.974609 840.150452,2171.976562 
	C870.146667,2171.994629 900.142944,2172.019043 930.139099,2171.974854 
	C947.044312,2171.949951 948.006592,2170.973633 948.007874,2153.617676 
	C948.023743,1942.644165 948.019897,1731.670776 948.005920,1520.697266 
	C948.005737,1517.367920 947.932434,1514.029541 947.682739,1510.711182 
	C947.303101,1505.665771 944.499329,1502.768677 939.432678,1502.362183 
	C936.116333,1502.096191 932.776794,1502.029175 929.447571,1502.026367 
	C900.117920,1502.001709 870.788330,1501.993286 841.458679,1502.017822 
	C822.505005,1502.033691 822.018921,1502.520996 822.015076,1521.810791 
	C821.999512,1600.134277 822.011230,1678.457764 821.996216,1756.781250 
	C821.995422,1760.778320 822.112976,1764.804321 821.694458,1768.765991 
	C821.039185,1774.967529 819.066284,1776.958374 812.952454,1777.665771 
	C809.327148,1778.085205 805.632446,1777.982300 801.968994,1777.982910 
	C700.648438,1777.996948 599.327820,1778.000610 498.007263,1777.988647 
	C478.322906,1777.986328 478.017944,1777.673584 478.014618,1757.742920 
	C478.001648,1679.419434 478.012695,1601.095947 477.994843,1522.772461 
	C477.993927,1518.776245 477.935455,1514.771729 477.675903,1510.785889 
	C477.348267,1505.754272 474.584961,1502.823975 469.503571,1502.362915 
	C466.853210,1502.122559 464.180786,1502.034058 461.518250,1502.032227 
	C430.855438,1502.010254 400.192657,1502.018311 369.529846,1502.018921 
	C368.863281,1502.018921 368.196533,1502.019409 367.530182,1502.033691 
	C354.383179,1502.316772 352.345062,1504.273193 352.049744,1517.064575 
	C351.957458,1521.062134 352.008179,1525.063232 352.008148,1529.062622 
	C352.006714,1695.041748 352.006927,1861.020874 352.006897,2029.000000 
M414.182617,926.771912 
	C419.920258,933.252869 425.100525,940.355347 431.502014,946.096069 
	C449.430115,962.173828 469.089752,975.688354 491.183563,985.734985 
	C539.285278,1007.607910 590.220947,1016.737305 642.441223,1019.810669 
	C661.009338,1020.903503 679.694458,1019.969421 698.325989,1020.031250 
	C743.610229,1020.181458 787.976379,1013.485352 831.684448,1002.044556 
	C869.674988,992.100342 905.665527,977.527161 938.209351,955.175903 
	C948.295044,948.249023 949.118713,945.884460 944.467041,934.370605 
	C937.851440,917.995361 931.005798,901.712158 924.154114,885.433533 
	C920.405518,876.527649 916.687439,867.593811 912.490295,858.897034 
	C909.626099,852.962036 907.053650,852.433289 901.263123,855.354370 
	C900.077393,855.952515 898.963257,856.703796 897.855469,857.443420 
	C871.017639,875.360596 841.890259,888.186096 810.998596,897.397522 
	C770.111450,909.589355 728.166077,915.257935 685.772949,915.497070 
	C660.925598,915.637146 635.871704,912.598511 611.243225,908.821533 
	C585.781921,904.916992 562.101013,895.762024 540.115173,881.200317 
	C505.489716,858.267212 496.317261,804.697693 521.611633,769.159180 
	C532.750610,753.508972 548.547241,744.562439 565.831238,737.884460 
	C586.880554,729.751770 608.935730,726.164673 631.413635,726.076355 
	C690.742432,725.843140 750.072754,725.997803 809.402466,725.991882 
	C813.068604,725.991516 816.743469,726.088806 820.399231,725.878967 
	C829.432678,725.360352 831.768738,723.400940 831.841919,714.340393 
	C832.065430,686.677917 832.066772,659.011108 831.820374,631.348938 
	C831.742065,622.553101 829.249878,620.581116 820.092102,620.110229 
	C816.434265,619.922241 812.760986,620.011169 809.094788,620.010620 
	C753.764832,620.002869 698.434692,620.099854 643.105103,619.947449 
	C622.234436,619.890015 601.904602,616.219421 582.752869,607.766418 
	C560.543457,597.963867 545.224792,581.880737 538.769409,557.867432 
	C535.224731,544.681580 535.191833,531.473145 537.203735,518.231750 
	C538.932312,506.855225 543.244568,496.143616 550.777893,487.458221 
	C562.431824,474.022125 576.096191,463.044739 592.789062,456.015686 
	C623.458496,443.101379 655.840576,439.384979 688.568665,438.228912 
	C704.493225,437.666443 720.590271,438.365936 736.436096,440.087677 
	C757.590332,442.386169 778.715027,445.522644 799.599487,449.595856 
	C826.221375,454.788055 851.213562,465.118134 875.898254,476.215637 
	C886.520935,480.991272 889.193909,479.671997 893.151917,468.867218 
	C902.550171,443.211609 911.703491,417.465576 920.830566,391.711700 
	C923.652405,383.749542 922.501526,381.270721 914.641357,377.590118 
	C908.003784,374.481995 901.324463,371.431274 894.517944,368.720795 
	C833.061096,344.247131 768.814514,334.073090 703.081421,332.167175 
	C688.146118,331.734161 673.149841,333.195190 658.188232,333.920258 
	C613.212402,336.099884 569.547729,344.409698 528.053406,362.414948 
	C498.077515,375.422150 470.906921,392.570404 449.509613,417.744690 
	C437.582031,431.777710 427.047150,446.912079 420.584656,464.221252 
	C411.051086,489.755829 406.499725,515.976501 409.706940,543.583069 
	C415.593750,594.254395 437.813477,634.664307 480.969513,662.846008 
	C483.253510,664.337524 485.132324,666.449463 488.604736,669.511475 
	C455.586517,685.183838 427.108551,703.995789 407.527405,733.472473 
	C388.138916,762.659180 379.152679,795.085022 380.116852,830.023438 
	C381.090027,865.286926 391.527832,897.498108 414.182617,926.771912 
M1909.143799,332.007721 
	C1894.853882,332.817108 1880.519653,333.161957 1866.282471,334.523163 
	C1823.750610,338.589508 1781.776489,345.587891 1740.804321,358.222107 
	C1701.147461,370.450653 1663.211182,386.497559 1627.167480,407.026184 
	C1618.454956,411.988434 1617.800415,414.491272 1622.062500,424.081665 
	C1627.338623,435.954010 1632.659058,447.806732 1637.979370,459.659393 
	C1643.845459,472.727875 1649.707031,485.798553 1655.619995,498.845886 
	C1660.267456,509.101013 1662.042114,509.651581 1672.275024,504.261505 
	C1672.569824,504.106201 1672.857910,503.938477 1673.149170,503.776703 
	C1718.684814,478.475281 1767.173218,461.277679 1818.194214,451.111267 
	C1827.337769,449.289307 1836.557373,447.711914 1845.812744,446.628174 
	C1854.533447,445.607056 1857.241455,448.205475 1857.801636,457.077301 
	C1858.074341,461.393921 1857.950928,465.737610 1857.951416,470.069061 
	C1857.968018,643.014709 1857.977173,815.960327 1857.996338,988.905945 
	C1857.996826,993.236877 1857.859253,997.587708 1858.213501,1001.894165 
	C1858.807251,1009.112732 1860.905640,1011.092102 1868.155273,1011.798340 
	C1870.469971,1012.023865 1872.815796,1011.977478 1875.147339,1011.978210 
	C1905.804321,1011.988098 1936.461426,1011.984619 1967.118408,1011.982849 
	C1968.118042,1011.982788 1969.118164,1011.985657 1970.117188,1011.956482 
	C1981.697998,1011.618286 1983.576904,1009.832153 1983.932617,998.611877 
	C1984.048706,994.949646 1983.984741,991.281433 1983.984863,987.615967 
	C1983.989502,815.336792 1983.992065,643.057617 1983.997314,470.778442 
	C1983.997437,466.779816 1983.918823,462.777039 1984.068115,458.783356 
	C1984.479004,447.798370 1987.344116,445.285492 1998.421021,446.822998 
	C2032.211426,451.513123 2065.155273,459.698151 2097.093506,471.693298 
	C2121.117676,480.716064 2144.748779,490.626434 2167.133301,503.363647 
	C2177.707764,509.380737 2180.538818,508.176392 2185.498291,497.375153 
	C2195.645996,475.273621 2205.795166,453.172150 2215.812256,431.011353 
	C2223.586670,413.812897 2223.125000,412.318878 2206.137207,403.215820 
	C2177.319824,387.773621 2147.697998,374.175964 2116.602783,363.826935 
	C2049.877441,341.619781 1981.236816,332.074188 1909.143799,332.007721 
z"/>
<path fill="#0D0C0A" opacity="1.000000" stroke="none" 
	d="
M1562.061646,1652.475586 
	C1563.090332,1636.003296 1567.273560,1621.233643 1574.452271,1607.569580 
	C1601.975830,1555.179932 1643.989380,1522.591675 1703.548706,1514.571289 
	C1707.820679,1513.996094 1712.194458,1514.052490 1716.521851,1514.037476 
	C1733.185181,1513.979248 1749.861816,1514.434082 1766.510132,1513.928589 
	C1812.214722,1512.540894 1850.909058,1529.769653 1882.971680,1560.670654 
	C1914.336914,1590.899658 1932.080811,1628.351562 1932.015381,1672.950073 
	C1931.992432,1688.613892 1932.015991,1704.277710 1932.068481,1719.941284 
	C1932.078613,1722.935059 1932.009033,1725.984375 1932.531006,1728.908936 
	C1933.437500,1733.987427 1936.093994,1735.052734 1940.253540,1732.240112 
	C1941.619507,1731.316406 1942.781372,1730.076904 1943.979248,1728.922363 
	C1945.658569,1727.303589 1947.276001,1725.620850 1948.934326,1723.980103 
	C2015.250244,1658.359497 2081.807617,1592.979858 2147.727539,1526.963745 
	C2165.617676,1509.047363 2199.049316,1508.566162 2214.163086,1533.315430 
	C2217.004883,1537.968994 2218.554199,1543.663696 2219.594727,1549.089844 
	C2220.521484,1553.923584 2219.980713,1559.050781 2219.980957,1564.048462 
	C2219.992188,1712.021118 2219.879150,1859.993896 2220.058105,2007.966309 
	C2220.111328,2051.928711 2204.053223,2089.018066 2174.309570,2120.748779 
	C2146.375732,2150.548340 2111.791748,2166.355957 2071.384033,2170.350098 
	C2043.746948,2173.082031 2016.081543,2173.448242 1988.645996,2169.432373 
	C1955.512939,2164.582275 1926.439697,2150.845459 1902.045288,2127.264648 
	C1883.277100,2109.122314 1868.246216,2088.719727 1859.300537,2064.115234 
	C1851.708496,2043.234131 1848.729858,2021.468628 1848.085327,1999.388428 
	C1847.686646,1985.735718 1848.091309,1972.061157 1847.926392,1958.398926 
	C1847.880737,1954.614624 1847.087402,1950.839355 1846.369385,1944.812744 
	C1842.083374,1948.108887 1839.386841,1949.788330 1837.162476,1951.952881 
	C1808.034302,1980.296143 1779.004517,2008.740723 1749.884521,2037.092529 
	C1727.450073,2058.935303 1704.940063,2080.700439 1682.432373,2102.468018 
	C1664.476074,2119.833740 1646.397461,2137.073730 1628.523071,2154.523193 
	C1619.701294,2163.135010 1609.876587,2169.533936 1597.344849,2171.043945 
	C1587.334839,2172.250000 1578.166504,2169.993896 1569.730347,2164.589600 
	C1564.907593,2161.500244 1562.190674,2157.172852 1562.151245,2151.321289 
	C1562.135620,2148.989014 1562.004395,2146.657471 1562.004517,2144.325439 
	C1562.010498,1980.688843 1562.024414,1817.052124 1562.061646,1652.475586 
M1840.196899,1643.015747 
	C1839.391968,1641.558472 1838.648438,1640.063232 1837.773315,1638.649414 
	C1821.493408,1612.354248 1798.708008,1597.463501 1766.969238,1597.955811 
	C1752.317505,1598.183228 1737.626465,1598.629517 1723.010254,1597.874390 
	C1685.547974,1595.938843 1651.008301,1629.013672 1644.809814,1662.644775 
	C1643.128540,1671.766846 1642.365601,1681.144287 1642.121338,1690.429321 
	C1641.228638,1724.363281 1640.696289,1758.307129 1640.097046,1792.248291 
	C1639.368408,1833.515503 1638.618530,1874.782471 1638.062012,1916.052124 
	C1637.810547,1934.701050 1638.190186,1953.358521 1637.934448,1972.007324 
	C1637.743042,1985.972290 1636.916992,1999.927612 1636.552002,2013.891846 
	C1636.472168,2016.946777 1637.150879,2020.021606 1637.598633,2024.189453 
	C1644.597656,2021.661011 1648.851318,2018.048828 1652.813843,2014.087280 
	C1660.805786,2006.096924 1668.526733,1997.829224 1676.661011,1989.988770 
	C1691.036621,1976.132568 1705.687866,1962.563110 1720.116455,1948.761353 
	C1724.911377,1944.174683 1729.222534,1939.081909 1734.020996,1934.499268 
	C1748.701416,1920.479858 1763.558472,1906.645752 1778.244751,1892.632568 
	C1783.285400,1887.822754 1787.892090,1882.558594 1792.928833,1877.744263 
	C1807.121826,1864.177490 1821.416992,1850.717285 1835.707642,1837.252930 
	C1844.414185,1829.049927 1848.381958,1819.454346 1848.212402,1807.071533 
	C1847.632935,1764.778687 1847.729980,1722.471680 1848.073975,1680.174072 
	C1848.176392,1667.567871 1846.539062,1655.647583 1840.196899,1643.015747 
M2040.962769,2087.944092 
	C2053.329102,2088.250977 2065.530029,2087.671143 2077.567139,2084.108154 
	C2113.475830,2073.479492 2135.979492,2043.596069 2135.930176,2006.122559 
	C2135.892090,1977.129150 2135.897949,1948.135620 2135.896484,1919.142212 
	C2135.892090,1837.827148 2135.908691,1756.511963 2135.854736,1675.196899 
	C2135.851807,1670.738770 2135.284424,1666.280884 2134.806885,1659.294556 
	C2130.004639,1663.601685 2127.016602,1666.039429 2124.302490,1668.751221 
	C2063.713623,1729.285767 2003.248413,1789.945190 1942.469116,1850.287964 
	C1935.019287,1857.684204 1931.755005,1865.466431 1931.859741,1875.907104 
	C1932.254639,1915.227661 1931.801392,1954.556885 1932.195312,1993.877441 
	C1932.297852,2004.112427 1933.365723,2014.545898 1935.636597,2024.513062 
	C1943.188843,2057.659912 1964.275269,2078.280029 1997.239990,2085.279785 
	C2010.732300,2088.144775 2025.039917,2087.170898 2040.962769,2087.944092 
z"/>
<path fill="#0D0C0A" opacity="1.000000" stroke="none" 
	d="
M352.006927,2028.000000 
	C352.006927,1861.020874 352.006714,1695.041748 352.008148,1529.062622 
	C352.008179,1525.063232 351.957458,1521.062134 352.049744,1517.064575 
	C352.345062,1504.273193 354.383179,1502.316772 367.530182,1502.033691 
	C368.196533,1502.019409 368.863281,1502.018921 369.529846,1502.018921 
	C400.192657,1502.018311 430.855438,1502.010254 461.518250,1502.032227 
	C464.180786,1502.034058 466.853210,1502.122559 469.503571,1502.362915 
	C474.584961,1502.823975 477.348267,1505.754272 477.675903,1510.785889 
	C477.935455,1514.771729 477.993927,1518.776245 477.994843,1522.772461 
	C478.012695,1601.095947 478.001648,1679.419434 478.014618,1757.742920 
	C478.017944,1777.673584 478.322906,1777.986328 498.007263,1777.988647 
	C599.327820,1778.000610 700.648438,1777.996948 801.968994,1777.982910 
	C805.632446,1777.982300 809.327148,1778.085205 812.952454,1777.665771 
	C819.066284,1776.958374 821.039185,1774.967529 821.694458,1768.765991 
	C822.112976,1764.804321 821.995422,1760.778320 821.996216,1756.781250 
	C822.011230,1678.457764 821.999512,1600.134277 822.015076,1521.810791 
	C822.018921,1502.520996 822.505005,1502.033691 841.458679,1502.017822 
	C870.788330,1501.993286 900.117920,1502.001709 929.447571,1502.026367 
	C932.776794,1502.029175 936.116333,1502.096191 939.432678,1502.362183 
	C944.499329,1502.768677 947.303101,1505.665771 947.682739,1510.711182 
	C947.932434,1514.029541 948.005737,1517.367920 948.005920,1520.697266 
	C948.019897,1731.670776 948.023743,1942.644165 948.007874,2153.617676 
	C948.006592,2170.973633 947.044312,2171.949951 930.139099,2171.974854 
	C900.142944,2172.019043 870.146667,2171.994629 840.150452,2171.976562 
	C837.153259,2171.974609 834.128540,2172.046631 831.164978,2171.686035 
	C824.998108,2170.936035 823.004578,2169.025146 822.333923,2162.866455 
	C821.902771,2158.907227 822.019775,2154.879639 822.019043,2150.882812 
	C822.003967,2070.226318 822.008362,1989.569702 822.003784,1908.913208 
	C822.003601,1905.247192 822.093201,1901.574219 821.903870,1897.916626 
	C821.415771,1888.485474 819.375854,1886.540649 809.672485,1886.074219 
	C807.011475,1885.946167 804.340942,1885.995239 801.674805,1885.995117 
	C700.687500,1885.992065 599.700256,1885.987305 498.712952,1885.996704 
	C478.204437,1885.998657 478.016724,1886.185059 478.013855,1906.540649 
	C478.002380,1988.197021 478.014587,2069.853516 478.002777,2151.509766 
	C477.999817,2171.817383 477.826324,2171.976807 457.237640,2171.986572 
	C428.907867,2172.000244 400.578125,2171.995361 372.248352,2171.982666 
	C368.916382,2171.981201 365.567444,2172.078857 362.256073,2171.789795 
	C354.961090,2171.153076 352.894104,2169.137207 352.224701,2161.970947 
	C351.915710,2158.662598 352.016693,2155.311279 352.015717,2151.979492 
	C352.003754,2110.986328 352.007355,2069.993164 352.006927,2028.000000 
z"/>
<path fill="#0D0C0A" opacity="1.000000" stroke="none" 
	d="
M413.738129,926.217651 
	C391.527832,897.498108 381.090027,865.286926 380.116852,830.023438 
	C379.152679,795.085022 388.138916,762.659180 407.527405,733.472473 
	C427.108551,703.995789 455.586517,685.183838 488.604736,669.511475 
	C485.132324,666.449463 483.253510,664.337524 480.969513,662.846008 
	C437.813477,634.664307 415.593750,594.254395 409.706940,543.583069 
	C406.499725,515.976501 411.051086,489.755829 420.584656,464.221252 
	C427.047150,446.912079 437.582031,431.777710 449.509613,417.744690 
	C470.906921,392.570404 498.077515,375.422150 528.053406,362.414948 
	C569.547729,344.409698 613.212402,336.099884 658.188232,333.920258 
	C673.149841,333.195190 688.146118,331.734161 703.081421,332.167175 
	C768.814514,334.073090 833.061096,344.247131 894.517944,368.720795 
	C901.324463,371.431274 908.003784,374.481995 914.641357,377.590118 
	C922.501526,381.270721 923.652405,383.749542 920.830566,391.711700 
	C911.703491,417.465576 902.550171,443.211609 893.151917,468.867218 
	C889.193909,479.671997 886.520935,480.991272 875.898254,476.215637 
	C851.213562,465.118134 826.221375,454.788055 799.599487,449.595856 
	C778.715027,445.522644 757.590332,442.386169 736.436096,440.087677 
	C720.590271,438.365936 704.493225,437.666443 688.568665,438.228912 
	C655.840576,439.384979 623.458496,443.101379 592.789062,456.015686 
	C576.096191,463.044739 562.431824,474.022125 550.777893,487.458221 
	C543.244568,496.143616 538.932312,506.855225 537.203735,518.231750 
	C535.191833,531.473145 535.224731,544.681580 538.769409,557.867432 
	C545.224792,581.880737 560.543457,597.963867 582.752869,607.766418 
	C601.904602,616.219421 622.234436,619.890015 643.105103,619.947449 
	C698.434692,620.099854 753.764832,620.002869 809.094788,620.010620 
	C812.760986,620.011169 816.434265,619.922241 820.092102,620.110229 
	C829.249878,620.581116 831.742065,622.553101 831.820374,631.348938 
	C832.066772,659.011108 832.065430,686.677917 831.841919,714.340393 
	C831.768738,723.400940 829.432678,725.360352 820.399231,725.878967 
	C816.743469,726.088806 813.068604,725.991516 809.402466,725.991882 
	C750.072754,725.997803 690.742432,725.843140 631.413635,726.076355 
	C608.935730,726.164673 586.880554,729.751770 565.831238,737.884460 
	C548.547241,744.562439 532.750610,753.508972 521.611633,769.159180 
	C496.317261,804.697693 505.489716,858.267212 540.115173,881.200317 
	C562.101013,895.762024 585.781921,904.916992 611.243225,908.821533 
	C635.871704,912.598511 660.925598,915.637146 685.772949,915.497070 
	C728.166077,915.257935 770.111450,909.589355 810.998596,897.397522 
	C841.890259,888.186096 871.017639,875.360596 897.855469,857.443420 
	C898.963257,856.703796 900.077393,855.952515 901.263123,855.354370 
	C907.053650,852.433289 909.626099,852.962036 912.490295,858.897034 
	C916.687439,867.593811 920.405518,876.527649 924.154114,885.433533 
	C931.005798,901.712158 937.851440,917.995361 944.467041,934.370605 
	C949.118713,945.884460 948.295044,948.249023 938.209351,955.175903 
	C905.665527,977.527161 869.674988,992.100342 831.684448,1002.044556 
	C787.976379,1013.485352 743.610229,1020.181458 698.325989,1020.031250 
	C679.694458,1019.969421 661.009338,1020.903503 642.441223,1019.810669 
	C590.220947,1016.737305 539.285278,1007.607910 491.183563,985.734985 
	C469.089752,975.688354 449.430115,962.173828 431.502014,946.096069 
	C425.100525,940.355347 419.920258,933.252869 413.738129,926.217651 
z"/>
<path fill="#0D0C0A" opacity="1.000000" stroke="none" 
	d="
M1910.125122,332.006714 
	C1981.236816,332.074188 2049.877441,341.619781 2116.602783,363.826935 
	C2147.697998,374.175964 2177.319824,387.773621 2206.137207,403.215820 
	C2223.125000,412.318878 2223.586670,413.812897 2215.812256,431.011353 
	C2205.795166,453.172150 2195.645996,475.273621 2185.498291,497.375153 
	C2180.538818,508.176392 2177.707764,509.380737 2167.133301,503.363647 
	C2144.748779,490.626434 2121.117676,480.716064 2097.093506,471.693298 
	C2065.155273,459.698151 2032.211426,451.513123 1998.421021,446.822998 
	C1987.344116,445.285492 1984.479004,447.798370 1984.068115,458.783356 
	C1983.918823,462.777039 1983.997437,466.779816 1983.997314,470.778442 
	C1983.992065,643.057617 1983.989502,815.336792 1983.984863,987.615967 
	C1983.984741,991.281433 1984.048706,994.949646 1983.932617,998.611877 
	C1983.576904,1009.832153 1981.697998,1011.618286 1970.117188,1011.956482 
	C1969.118164,1011.985657 1968.118042,1011.982788 1967.118408,1011.982849 
	C1936.461426,1011.984619 1905.804321,1011.988098 1875.147339,1011.978210 
	C1872.815796,1011.977478 1870.469971,1012.023865 1868.155273,1011.798340 
	C1860.905640,1011.092102 1858.807251,1009.112732 1858.213501,1001.894165 
	C1857.859253,997.587708 1857.996826,993.236877 1857.996338,988.905945 
	C1857.977173,815.960327 1857.968018,643.014709 1857.951416,470.069061 
	C1857.950928,465.737610 1858.074341,461.393921 1857.801636,457.077301 
	C1857.241455,448.205475 1854.533447,445.607056 1845.812744,446.628174 
	C1836.557373,447.711914 1827.337769,449.289307 1818.194214,451.111267 
	C1767.173218,461.277679 1718.684814,478.475281 1673.149170,503.776703 
	C1672.857910,503.938477 1672.569824,504.106201 1672.275024,504.261505 
	C1662.042114,509.651581 1660.267456,509.101013 1655.619995,498.845886 
	C1649.707031,485.798553 1643.845459,472.727875 1637.979370,459.659393 
	C1632.659058,447.806732 1627.338623,435.954010 1622.062500,424.081665 
	C1617.800415,414.491272 1618.454956,411.988434 1627.167480,407.026184 
	C1663.211182,386.497559 1701.147461,370.450653 1740.804321,358.222107 
	C1781.776489,345.587891 1823.750610,338.589508 1866.282471,334.523163 
	C1880.519653,333.161957 1894.853882,332.817108 1910.125122,332.006714 
z"/>
<path fill="#000000" opacity="1.000000" stroke="none" 
	d="
M1840.522949,1643.694336 
	C1846.539062,1655.647583 1848.176392,1667.567871 1848.073975,1680.174072 
	C1847.729980,1722.471680 1847.632935,1764.778687 1848.212402,1807.071533 
	C1848.381958,1819.454346 1844.414185,1829.049927 1835.707642,1837.252930 
	C1821.416992,1850.717285 1807.121826,1864.177490 1792.928833,1877.744263 
	C1787.892090,1882.558594 1783.285400,1887.822754 1778.244751,1892.632568 
	C1763.558472,1906.645752 1748.701416,1920.479858 1734.020996,1934.499268 
	C1729.222534,1939.081909 1724.911377,1944.174683 1720.116455,1948.761353 
	C1705.687866,1962.563110 1691.036621,1976.132568 1676.661011,1989.988770 
	C1668.526733,1997.829224 1660.805786,2006.096924 1652.813843,2014.087280 
	C1648.851318,2018.048828 1644.597656,2021.661011 1637.598633,2024.189453 
	C1637.150879,2020.021606 1636.472168,2016.946777 1636.552002,2013.891846 
	C1636.916992,1999.927612 1637.743042,1985.972290 1637.934448,1972.007324 
	C1638.190186,1953.358521 1637.810547,1934.701050 1638.062012,1916.052124 
	C1638.618530,1874.782471 1639.368408,1833.515503 1640.097046,1792.248291 
	C1640.696289,1758.307129 1641.228638,1724.363281 1642.121338,1690.429321 
	C1642.365601,1681.144287 1643.128540,1671.766846 1644.809814,1662.644775 
	C1651.008301,1629.013672 1685.547974,1595.938843 1723.010254,1597.874390 
	C1737.626465,1598.629517 1752.317505,1598.183228 1766.969238,1597.955811 
	C1798.708008,1597.463501 1821.493408,1612.354248 1837.773315,1638.649414 
	C1838.648438,1640.063232 1839.391968,1641.558472 1840.522949,1643.694336 
z"/>
<path fill="#000000" opacity="1.000000" stroke="none" 
	d="
M2039.969727,2087.943848 
	C2025.039917,2087.170898 2010.732300,2088.144775 1997.239990,2085.279785 
	C1964.275269,2078.280029 1943.188843,2057.659912 1935.636597,2024.513062 
	C1933.365723,2014.545898 1932.297852,2004.112427 1932.195312,1993.877441 
	C1931.801392,1954.556885 1932.254639,1915.227661 1931.859741,1875.907104 
	C1931.755005,1865.466431 1935.019287,1857.684204 1942.469116,1850.287964 
	C2003.248413,1789.945190 2063.713623,1729.285767 2124.302490,1668.751221 
	C2127.016602,1666.039429 2130.004639,1663.601685 2134.806885,1659.294556 
	C2135.284424,1666.280884 2135.851807,1670.738770 2135.854736,1675.196899 
	C2135.908691,1756.511963 2135.892090,1837.827148 2135.896484,1919.142212 
	C2135.897949,1948.135620 2135.892090,1977.129150 2135.930176,2006.122559 
	C2135.979492,2043.596069 2113.475830,2073.479492 2077.567139,2084.108154 
	C2065.530029,2087.671143 2053.329102,2088.250977 2039.969727,2087.943848 
z"/>
</svg>